# xmcd
#
# Track frame offsets: 
#        150
#        22488
#        43278
#        62472
#        80837
#        97450
#        122223
#        138112
#        172064
#
# Disc length: 2773 seconds
#
# Revision: 3
# Processed by: cddbd v1.5.2PL0 Copyright (c) Steve Scherf et al.
# Submitted via: ExactAudioCopy v0.95b4
#
DISCID=8b0ad309
DTITLE=Peter Hammill - Naked Songs, Out Of My Book
DYEAR=1985
DGENRE=Blues
TTITLE0=Just Good Friends (Live in Mannheim 14.03.85)
TTITLE1=Don't Tell Me (Live in Mannheim 14.03.85)
TTITLE2=This Side Of The Looking-Glass (Live in Mannheim 14.03.85)
TTITLE3=The Mousetrap (Live in Mannheim 14.03.85)
TTITLE4=The Future Now (Live in Mannheim 14.03.85)
TTITLE5=If I Could (Live in Mannheim 14.03.85)
TTITLE6=Been Alone So Long (Live in Mannheim 14.03.85)
TTITLE7=Modern (Live in Mannheim 14.03.85)
TTITLE8=My Room (Waiting For Wonderland)
EXTD=
EXTT0=
EXTT1=
EXTT2=
EXTT3=
EXTT4=
EXTT5=
EXTT6=
EXTT7=
EXTT8=
PLAYORDER=
